<?xml version="1.0" standalone="no"?>
<!DOCTYPE svg PUBLIC "-//W3C//DTD SVG 20010904//EN"
 "http://www.w3.org/TR/2001/REC-SVG-20010904/DTD/svg10.dtd">
<svg version="1.0" xmlns="http://www.w3.org/2000/svg"
 width="700.000000pt" height="700.000000pt" viewBox="0 0 700.000000 700.000000"
 preserveAspectRatio="xMidYMid meet">
<metadata>
Created by potrace 1.14, written by Peter Selinger 2001-2017
</metadata>
<g transform="translate(0.000000,700.000000) scale(0.100000,-0.100000)"
fill="#000000" stroke="none">
<path d="M1654 6692 c-83 -30 -148 -93 -180 -179 -24 -63 -15 -177 19 -234 58
-100 148 -153 257 -153 260 1 389 317 204 499 -78 76 -200 103 -300 67z"/>
<path d="M5154 6692 c-83 -30 -148 -93 -180 -179 -24 -63 -15 -177 19 -234 58
-100 148 -153 257 -153 260 1 389 317 204 499 -78 76 -200 103 -300 67z"/>
<path d="M3308 6574 c-44 -13 -53 -23 -49 -47 1 -5 -3 -6 -9 -2 -5 3 -11 1
-11 -4 -1 -6 -2 -17 -3 -23 0 -7 -6 -13 -13 -13 -15 0 -28 -13 -28 -28 0 -7
-7 -12 -15 -13 -26 -1 -129 -54 -140 -72 -5 -9 -10 -14 -10 -10 0 4 -20 -1
-45 -12 -25 -11 -82 -27 -128 -36 -45 -9 -90 -23 -99 -31 -9 -8 -20 -38 -24
-66 -10 -73 -11 -79 -20 -105 -4 -13 -28 -67 -55 -120 -26 -52 -45 -100 -42
-105 3 -6 1 -7 -5 -3 -11 7 -17 -6 -13 -27 1 -5 -3 -6 -7 -3 -5 3 -17 -3 -27
-14 -10 -11 -15 -20 -10 -20 4 0 2 -7 -5 -15 -7 -8 -16 -12 -21 -9 -5 3 -19
-2 -31 -10 -12 -9 -18 -16 -13 -16 6 0 6 -3 0 -8 -23 -15 -35 -94 -35 -222 0
-128 12 -207 35 -222 6 -5 6 -8 0 -8 -5 0 1 -7 13 -16 12 -8 28 -12 35 -8 6 4
9 3 4 -1 -9 -11 43 -66 55 -59 5 3 7 2 6 -3 -4 -15 62 -143 74 -143 6 0 9 -3
5 -6 -3 -4 0 -23 8 -43 7 -20 16 -45 20 -56 10 -26 13 -39 20 -100 12 -99 53
-170 87 -149 7 4 8 3 4 -4 -6 -11 13 -17 37 -13 5 1 6 -3 2 -8 -3 -6 4 -15 15
-21 35 -19 79 -90 99 -159 22 -73 44 -209 43 -257 -1 -21 6 -38 23 -53 25 -21
29 -21 468 -21 l444 0 20 23 c16 16 23 40 27 92 7 86 23 175 36 211 6 15 8 29
6 31 -3 3 -1 10 5 17 5 6 24 33 42 60 22 35 49 59 90 81 67 37 93 76 102 157
11 97 26 150 67 238 17 35 31 74 32 86 0 12 4 20 7 18 4 -2 17 12 30 32 13 19
45 50 71 69 54 39 54 40 62 248 5 140 -9 221 -42 231 -35 12 -102 93 -148 181
-56 109 -80 175 -89 249 -4 30 -14 61 -22 68 -9 7 -54 20 -101 30 -47 9 -106
28 -131 41 -25 13 -73 38 -107 56 -66 35 -105 67 -146 122 -20 27 -39 39 -72
48 -65 16 -320 13 -378 -5z"/>
<path d="M1659 5237 c-124 -47 -198 -148 -199 -273 0 -119 60 -218 165 -269
114 -56 258 -27 344 71 78 89 94 215 40 322 -50 102 -129 153 -244 159 -43 2
-84 -2 -106 -10z"/>
<path d="M5159 5237 c-124 -47 -198 -148 -199 -273 0 -119 60 -218 165 -269
114 -56 258 -27 344 71 78 89 94 215 40 322 -50 102 -129 153 -244 159 -43 2
-84 -2 -106 -10z"/>
<path d="M2916 4082 c-8 -13 11 -131 28 -180 54 -152 162 -276 297 -340 97
-46 162 -62 259 -62 97 0 162 16 259 62 178 85 311 280 323 473 l3 50 -582 3
c-320 1 -584 -2 -587 -6z"/>
<path d="M1584 3355 c-10 -8 -14 -15 -9 -15 6 0 6 -3 -1 -8 -12 -8 -59 -83
-59 -94 0 -5 -4 -8 -10 -9 -21 -2 -45 -20 -40 -29 4 -6 -1 -7 -11 -3 -12 4
-15 3 -10 -5 5 -8 1 -10 -10 -5 -12 4 -15 3 -10 -5 5 -8 2 -10 -8 -6 -9 3 -16
1 -16 -5 0 -6 -7 -8 -15 -5 -8 4 -15 1 -15 -5 0 -6 -7 -8 -15 -5 -8 4 -15 1
-15 -5 0 -6 -6 -8 -13 -5 -18 6 -107 -89 -107 -115 0 -11 -15 -49 -34 -85 -19
-35 -31 -68 -27 -71 3 -4 2 -5 -4 -3 -10 3 -52 -23 -85 -54 -10 -9 -21 -13
-25 -10 -4 4 -13 -2 -21 -12 -10 -15 -14 -55 -14 -162 0 -143 9 -199 32 -192
7 3 19 -1 26 -9 8 -7 19 -10 25 -6 7 3 9 3 5 -2 -7 -8 29 -40 45 -40 4 0 7 -3
7 -8 0 -4 11 -27 25 -51 14 -24 32 -65 40 -92 19 -66 77 -121 157 -152 35 -13
71 -24 80 -25 9 -1 14 -5 12 -9 -3 -4 5 -12 16 -18 11 -6 20 -7 20 -3 0 9 25
-15 26 -25 1 -17 27 -61 33 -57 4 2 8 -6 8 -17 3 -40 30 -47 178 -48 154 0
189 5 181 26 -3 8 -1 14 4 14 9 0 26 39 22 52 -1 5 1 7 6 6 9 -3 71 59 66 67
-2 3 -1 3 2 0 4 -2 23 4 43 14 20 10 51 22 69 26 17 3 32 11 32 16 0 6 4 8 8
5 5 -3 29 16 54 42 31 33 50 64 62 104 9 32 32 78 51 102 18 24 30 47 27 51
-4 4 -2 5 3 4 12 -4 77 29 86 43 3 5 10 9 15 9 12 -1 21 299 10 327 -5 12 -14
21 -20 19 -6 -2 -17 2 -24 10 -8 7 -18 11 -23 8 -5 -4 -9 -1 -9 5 0 6 -5 8
-10 5 -6 -4 -9 -3 -8 2 2 4 -11 23 -28 41 -18 18 -37 46 -44 62 -7 16 -17 27
-23 23 -5 -3 -7 -2 -4 4 3 5 1 27 -5 49 -13 44 -96 137 -115 129 -7 -2 -13 -1
-13 4 0 11 -71 32 -83 24 -6 -4 -7 -1 -2 7 6 10 4 12 -8 7 -10 -3 -17 -2 -17
4 0 6 -5 7 -12 3 -7 -4 -8 -3 -4 4 7 11 -27 36 -36 26 -3 -2 -11 4 -19 13 -13
17 -12 17 6 4 11 -7 7 -1 -10 14 -16 16 -29 30 -27 32 6 9 1 23 -8 18 -6 -3
-7 1 -4 9 3 9 1 16 -6 16 -6 0 -9 4 -5 9 13 22 -40 31 -177 31 -111 0 -149 -3
-164 -15z"/>
<path d="M5084 3355 c-10 -8 -14 -15 -9 -15 6 0 6 -3 -1 -8 -12 -8 -59 -83
-59 -94 0 -5 -4 -8 -10 -9 -21 -2 -45 -20 -40 -29 4 -6 -1 -7 -11 -3 -12 4
-15 3 -10 -5 5 -8 1 -10 -10 -5 -12 4 -15 3 -10 -5 5 -8 2 -10 -8 -6 -9 3 -16
1 -16 -5 0 -6 -7 -8 -15 -5 -8 4 -15 1 -15 -5 0 -6 -7 -8 -15 -5 -8 4 -15 1
-15 -5 0 -6 -6 -8 -13 -5 -18 6 -107 -89 -107 -115 0 -11 -15 -49 -34 -85 -19
-35 -32 -67 -30 -70 2 -3 1 -4 -3 -1 -3 3 -16 -3 -27 -14 -12 -10 -39 -28 -60
-40 -22 -11 -43 -26 -48 -33 -11 -18 -10 -291 1 -321 9 -23 51 -44 76 -38 5 2
7 -1 3 -5 -8 -7 29 -39 45 -39 4 0 7 -3 7 -8 0 -4 11 -27 25 -51 14 -24 32
-65 40 -92 19 -66 77 -121 157 -152 35 -13 71 -24 80 -25 9 -1 14 -5 12 -9 -3
-4 5 -12 16 -18 11 -6 20 -7 20 -3 0 9 25 -15 26 -25 1 -17 27 -61 33 -57 4 2
8 -6 8 -17 3 -40 30 -47 178 -48 154 0 189 5 181 26 -3 8 -1 14 4 14 9 0 26
39 22 52 -1 5 1 7 6 6 9 -3 71 59 66 67 -2 3 -1 3 2 0 4 -2 23 4 43 14 20 10
51 22 69 26 17 3 32 11 32 16 0 6 4 8 8 5 5 -3 29 16 54 42 31 33 50 64 62
104 9 32 32 78 51 102 18 24 30 47 27 51 -4 4 -2 5 3 4 12 -4 77 29 86 43 3 5
10 9 15 9 12 -1 21 299 10 327 -5 12 -14 21 -20 19 -6 -2 -17 2 -24 10 -8 7
-18 11 -23 8 -5 -4 -9 -1 -9 5 0 6 -5 8 -10 5 -6 -4 -9 -3 -8 2 2 4 -11 23
-28 41 -18 18 -37 46 -44 62 -7 16 -17 27 -23 23 -5 -3 -7 -2 -4 4 3 5 1 27
-5 49 -13 44 -96 137 -115 129 -7 -2 -13 -1 -13 4 0 11 -71 32 -83 24 -6 -4
-7 -1 -2 7 6 10 4 12 -8 7 -10 -3 -17 -2 -17 4 0 6 -5 7 -12 3 -7 -4 -8 -3 -4
4 7 11 -27 36 -36 26 -3 -2 -11 4 -19 13 -13 17 -12 17 6 4 11 -7 7 -1 -10 14
-16 16 -29 30 -27 32 6 9 1 23 -8 18 -6 -3 -7 1 -4 9 3 9 1 16 -6 16 -6 0 -9
4 -5 9 13 22 -40 31 -177 31 -111 0 -149 -3 -164 -15z"/>
<path d="M755 1448 c-93 -17 -213 -84 -291 -162 -180 -180 -223 -434 -113
-663 68 -142 177 -240 337 -302 l67 -26 2740 0 2740 0 66 23 c182 63 307 186
377 370 22 58 26 82 26 187 0 105 -4 129 -26 187 -38 100 -85 173 -156 239
-72 68 -196 132 -286 148 -77 14 -5407 13 -5481 -1z"/>
</g>
</svg>
